<svg xmlns:dc="http://purl.org/dc/elements/1.1/" xmlns:cc="http://creativecommons.org/ns#" xmlns:rdf="http://www.w3.org/1999/02/22-rdf-syntax-ns#" xmlns:svg="http://www.w3.org/2000/svg" xmlns="http://www.w3.org/2000/svg" xmlns:sodipodi="http://sodipodi.sourceforge.net/DTD/sodipodi-0.dtd" xmlns:inkscape="http://www.inkscape.org/namespaces/inkscape" version="1.1" x="0px" y="0px" viewBox="0 0 100 125"><g transform="translate(0,-952.36218)"><path style="text-indent:0;text-transform:none;direction:ltr;block-progression:tb;baseline-shift:baseline;color:#000000;enable-background:accumulate;" d="M 49.96875 8.9375 A 3.0003 3.0003 0 0 0 47 12 L 47 24 A 3.0003 3.0003 0 1 0 53 24 L 53 12 A 3.0003 3.0003 0 0 0 49.96875 8.9375 z M 19.65625 17.96875 A 3.0003 3.0003 0 0 0 17.875 23.09375 L 26.875 32.09375 A 3.0003 3.0003 0 1 0 31.125 27.875 L 22.125 18.875 A 3.0003 3.0003 0 0 0 19.65625 17.96875 z M 79.65625 17.96875 A 3.0003 3.0003 0 0 0 77.875 18.875 L 68.875 27.875 A 3.0003 3.0003 0 1 0 73.125 32.09375 L 82.125 23.09375 A 3.0003 3.0003 0 0 0 79.65625 17.96875 z M 35.6875 35 A 3.0003 3.0003 0 0 0 33.0625 37.40625 L 29.0625 57.40625 A 3.0003 3.0003 0 0 0 32 61 L 68 61 A 3.0003 3.0003 0 0 0 70.9375 57.40625 L 66.9375 37.40625 A 3.0003 3.0003 0 0 0 64 35 L 36 35 A 3.0003 3.0003 0 0 0 35.6875 35 z M 38.4375 41 L 61.5625 41 L 64.34375 55 L 35.65625 55 L 38.4375 41 z M 11.6875 65 A 3.0003 3.0003 0 0 0 9.0625 67.40625 L 5.0625 87.40625 A 3.0003 3.0003 0 0 0 8 91 L 44 91 A 3.0003 3.0003 0 0 0 46.9375 87.40625 L 42.9375 67.40625 A 3.0003 3.0003 0 0 0 40 65 L 12 65 A 3.0003 3.0003 0 0 0 11.6875 65 z M 59.6875 65 A 3.0003 3.0003 0 0 0 57.0625 67.40625 L 53.0625 87.40625 A 3.0003 3.0003 0 0 0 56 91 L 92 91 A 3.0003 3.0003 0 0 0 94.9375 87.40625 L 90.9375 67.40625 A 3.0003 3.0003 0 0 0 88 65 L 60 65 A 3.0003 3.0003 0 0 0 59.6875 65 z M 14.4375 71 L 37.5625 71 L 40.34375 85 L 11.65625 85 L 14.4375 71 z M 62.4375 71 L 85.5625 71 L 88.34375 85 L 59.65625 85 L 62.4375 71 z " transform="translate(0,952.36218)" fill="#000000" fill-opacity="1" stroke="none" marker="none" visibility="visible" display="inline" overflow="visible"/></g><text x="0" y="115" fill="#000000" font-size="5px" font-weight="bold" font-family="'Helvetica Neue', Helvetica, Arial-Unicode, Arial, Sans-serif">Created by iconsphere</text><text x="0" y="120" fill="#000000" font-size="5px" font-weight="bold" font-family="'Helvetica Neue', Helvetica, Arial-Unicode, Arial, Sans-serif">from the Noun Project</text></svg>