<?xml version="1.0" encoding="iso-8859-1"?>
<!-- Generator: Adobe Illustrator 19.0.0, SVG Export Plug-In . SVG Version: 6.00 Build 0)  -->
<svg version="1.1" id="Layer_1" xmlns="http://www.w3.org/2000/svg" xmlns:xlink="http://www.w3.org/1999/xlink" x="0px" y="0px"
	 viewBox="0 0 512 512" style="enable-background:new 0 0 512 512;" xml:space="preserve">
<path style="fill:#E8E8E8;" d="M421.2,16H91.6c-12.8,0-24,10.4-24,24v432c0,12.8,10.4,24,24,24h328.8c12.8,0,24-10.4,24-24V40
	C444.4,26.4,434,16,421.2,16z"/>
<path d="M421.2,0H91.6c-21.6,0-40,17.6-40,40v432c0,21.6,17.6,40,40,40h328.8c21.6,0,40-17.6,40-40V40C460.4,17.6,442.8,0,421.2,0z
	 M444.4,472c0,12.8-10.4,24-24,24H91.6c-12.8,0-24-10.4-24-24V40c0-12.8,10.4-24,24-24h328.8c12.8,0,24,10.4,24,24V472z"/>
<circle cx="256.4" cy="467.2" r="12"/>
<rect x="104.4" y="49.6" style="fill:#9DE8F7;" width="304" height="372"/>
<path d="M88.4,33.6v404h336l0,0v-404H88.4z M408.4,421.6h-304v-372h304V421.6z"/>
<rect x="147.6" y="96" width="218.4" height="16"/>
<rect x="147.6" y="140" width="218.4" height="16"/>
<rect x="147.6" y="184" width="218.4" height="16"/>
<rect x="147.6" y="228" width="218.4" height="16"/>
<rect x="147.6" y="272" width="218.4" height="16"/>
<rect x="147.6" y="316" width="218.4" height="16"/>
<rect x="147.6" y="360" width="218.4" height="16"/>
<g>
</g>
<g>
</g>
<g>
</g>
<g>
</g>
<g>
</g>
<g>
</g>
<g>
</g>
<g>
</g>
<g>
</g>
<g>
</g>
<g>
</g>
<g>
</g>
<g>
</g>
<g>
</g>
<g>
</g>
</svg>
